PathFileType  4	(X/Y/Z) C:\Users\antoi\Documents\MyRepositories\mobilecap\ResultsAnalysis
DataRate	CameraRate	NumFrames	NumMarkers	Units	OrigDataRate	OrigDataStartFrame	OrigNumFrames
100.0	100.0	6	51	mm	100.0	107	284
Frame#	Time	r_knee			r_shank_antsup			r_ankle			r_calc			r_5meta			r_toe			L_knee			L_shank_antsup			L_ankle			L_calc			L_5meta			L_toe			r_sh2			r_sh3			r_sh4			L_sh2			L_sh3			r_thigh1			r_thigh2			r_thigh3			r_thigh4			r_thigh5			L_thigh1			L_thigh2			L_thigh3			L_thigh4			r.ASIS			r.PSIS			L.ASIS			L.PSIS			C7			R_Shoulder			L_Shoulder			R_Sternum			L_Sternum			R_humerus			R_elbow_med			R_elbow_lat			R_forearm			R_wrist_radius			R_wrist_ulna			L_humerus			L_elbow_med			L_elbow_lat			L_forearm			L_wrist_radius			L_wrist_ulna			R_HJC			L_HJC			R_HJC_reg			L_HJC_reg			
		X1	Y1	Z1	X2	Y2	Z2	X3	Y3	Z3	X4	Y4	Z4	X5	Y5	Z5	X6	Y6	Z6	X7	Y7	Z7	X8	Y8	Z8	X9	Y9	Z9	X10	Y10	Z10	X11	Y11	Z11	X12	Y12	Z12	X13	Y13	Z13	X14	Y14	Z14	X15	Y15	Z15	X16	Y16	Z16	X17	Y17	Z17	X18	Y18	Z18	X19	Y19	Z19	X20	Y20	Z20	X21	Y21	Z21	X22	Y22	Z22	X23	Y23	Z23	X24	Y24	Z24	X25	Y25	Z25	X26	Y26	Z26	X27	Y27	Z27	X28	Y28	Z28	X29	Y29	Z29	X30	Y30	Z30	X31	Y31	Z31	X32	Y32	Z32	X33	Y33	Z33	X34	Y34	Z34	X35	Y35	Z35	X36	Y36	Z36	X37	Y37	Z37	X38	Y38	Z38	X39	Y39	Z39	X40	Y40	Z40	X41	Y41	Z41	X42	Y42	Z42	X43	Y43	Z43	X44	Y44	Z44	X45	Y45	Z45	X46	Y46	Z46	X47	Y47	Z47	X48	Y48	Z48	X49	Y49	Z49	X50	Y50	Z50	X51	Y51	Z51	

107	1.06000000	-901.20013	832.51051	-409.78661	-954.42635	693.40093	-415.14454	-1248.38424	470.22228	-418.40723	-1313.08397	470.02284	-482.24583	-1160.69003	352.83527	-386.83230	-1114.64049	363.87047	-437.52877	-956.16410	822.64776	-737.74047	-1017.62919	631.81771	-713.02642	-1275.63418	451.39976	-724.02226	-1344.73804	424.92631	-659.45780	-1169.27428	346.16814	-774.83898	-1118.89731	367.71183	-718.51758	-1032.41218	610.14654	-423.08498	-1005.96286	733.90629	-378.94209	-1085.12532	657.17823	-376.59189	-1065.82288	680.03964	-773.68176	-1149.07053	595.94034	-756.34007	-922.17409	1128.94794	-388.59547	-884.24327	1022.09925	-386.49999	-938.23956	980.04217	-382.45027	-1026.19765	1092.81467	-420.00484	-988.54674	980.57568	-406.50195	-920.58794	1118.39044	-761.49094	-904.27793	983.86663	-750.63736	-1030.20783	1108.86436	-767.97672	-1011.34763	972.09882	-769.84085	-912.56774	1378.17209	-459.12789	-1092.52990	1443.20009	-541.32612	-934.15997	1365.74432	-731.27613	-1097.68001	1444.69154	-634.57097	-909.84323	1905.15970	-612.65692	-825.73047	1884.43050	-469.40430	-847.25431	1884.69874	-761.67950	-787.85298	1802.71363	-588.87284	-787.46577	1800.07865	-634.38693	-734.96944	1687.16674	-318.48961	-763.66696	1540.21417	-264.35908	-739.92457	1607.35028	-212.55085	-557.91301	1601.60930	-331.52019	-488.45549	1596.64141	-386.15759	-473.25596	1583.07318	-353.43002	-702.37676	1687.56110	-889.89977	-730.37141	1560.62942	-936.44789	-685.80853	1621.62022	-978.55792	-521.43885	1640.79827	-853.45956	-473.18624	1644.41206	-797.74096	-458.18917	1636.25960	-825.25740	-1011.76771	1300.38047	-488.61490	-1029.60200	1296.69353	-685.24948	-1000.96656	1301.73129	-494.38986	-1010.90982	1304.60842	-674.45877	
108	1.07000000	-899.97090	842.91865	-407.92556	-952.68019	703.31617	-412.33940	-1243.31621	474.94416	-416.53823	-1306.88218	477.68360	-480.84794	-1159.61552	353.27268	-386.39650	-1113.36682	363.61935	-437.04540	-954.34547	833.85587	-740.09036	-1014.91844	642.85074	-715.63653	-1271.53278	458.89892	-725.74086	-1340.34494	435.85957	-660.82423	-1168.80069	347.30779	-774.96144	-1117.68500	367.66142	-719.10460	-1029.34039	618.68734	-420.28353	-1004.93655	743.40927	-376.52868	-1082.91935	666.15047	-374.31503	-1063.79793	690.45131	-775.95898	-1146.02772	605.61588	-758.56455	-911.12531	1140.46077	-387.50104	-876.77831	1032.14014	-385.28616	-932.01830	991.67917	-380.98007	-1016.17603	1107.25712	-418.94956	-982.37803	993.93963	-405.00132	-910.13165	1128.69261	-762.26314	-897.53570	993.56690	-752.31063	-1019.50852	1122.57052	-768.93120	-1005.03047	985.23086	-771.48301	-896.03688	1394.97025	-459.15971	-1077.46498	1455.95182	-541.58616	-917.28614	1381.18857	-730.64538	-1082.27046	1456.96878	-634.47221	-905.66699	1921.96177	-613.48323	-822.12130	1903.60317	-470.79789	-843.50314	1902.99041	-761.28866	-782.19557	1821.61951	-589.30883	-781.80757	1818.33936	-635.00600	-732.75153	1708.40343	-315.03393	-763.19688	1562.31175	-258.56203	-739.31272	1630.44171	-207.90502	-557.14235	1623.49942	-326.35180	-487.48519	1617.96201	-380.63314	-472.37222	1604.95921	-347.84102	-698.37616	1707.89828	-893.45191	-726.78817	1581.43089	-941.42214	-682.55908	1643.01792	-982.95032	-518.90353	1662.58217	-857.63326	-470.74138	1666.36626	-801.72896	-455.69799	1658.64210	-829.28572	-993.60380	1315.03473	-488.12423	-1011.23214	1310.27970	-684.75318	-983.06619	1316.76827	-494.31033	-992.36180	1318.73390	-674.01674	
109	1.08000000	-897.49382	854.92140	-405.71476	-949.67554	715.03623	-409.25878	-1236.09799	480.48717	-414.05789	-1298.43983	487.05820	-478.75945	-1158.07382	353.97243	-385.86143	-1111.71726	363.61759	-436.44971	-950.85830	846.71031	-742.86321	-1010.33131	655.52904	-718.98544	-1265.18620	468.15272	-727.73349	-1333.41538	449.10660	-662.63678	-1167.75712	349.03424	-775.19208	-1116.11551	367.53168	-719.75057	-1024.84197	629.33583	-416.56649	-1002.55674	754.63556	-373.57804	-1079.17185	674.88854	-371.47422	-1059.94334	702.75017	-778.88450	-1141.22347	617.06326	-761.10911	-900.11911	1153.14870	-386.13618	-868.57479	1043.65800	-383.89914	-925.02665	1004.62592	-379.22663	-1005.78405	1122.55332	-417.55092	-975.27934	1008.31538	-403.38828	-898.41585	1140.25433	-763.69724	-889.65394	1004.83307	-754.70981	-1008.48719	1137.07151	-770.31645	-997.58382	999.41735	-773.15723	-879.68139	1412.60914	-459.12711	-1062.08075	1469.15879	-541.63661	-900.59139	1398.08735	-730.73924	-1066.78760	1469.83891	-634.41160	-900.98519	1938.78875	-614.24614	-818.19709	1922.68348	-471.87405	-839.26110	1920.98598	-760.80773	-776.21034	1839.97119	-589.48507	-775.85080	1836.00188	-635.50579	-731.03484	1729.56842	-311.27772	-763.74228	1584.35107	-252.79873	-739.52666	1653.56496	-203.25294	-557.08619	1644.73095	-320.79249	-487.22499	1638.43206	-374.68392	-472.29923	1625.95852	-341.68008	-694.75543	1727.79242	-897.26955	-723.87164	1601.80881	-946.63647	-679.90633	1663.89533	-987.54963	-516.98562	1683.46549	-861.90829	-468.73788	1687.08116	-805.92161	-453.66762	1679.82488	-833.51875	-975.08558	1330.31056	-488.04507	-992.63903	1324.96456	-684.66725	-964.89666	1332.47744	-494.23070	-974.02178	1333.79721	-674.04397	
110	1.09000000	-893.66406	868.45198	-403.33551	-945.34611	728.54055	-405.90966	-1226.51455	487.08788	-411.00710	-1287.61798	498.15342	-476.04216	-1155.99612	355.20410	-385.17377	-1109.70240	363.93243	-435.69752	-945.21183	860.87027	-746.01751	-1003.49167	669.34365	-722.92137	-1256.13869	479.04128	-729.87039	-1323.52712	464.55720	-664.05002	-1165.96011	351.65028	-775.58129	-1113.79241	367.73526	-720.30273	-1018.80278	641.77390	-412.07194	-998.90085	767.48851	-370.61689	-1073.71927	684.90486	-368.31526	-1054.06014	716.59906	-782.19782	-1134.26340	629.95016	-763.78181	-889.22772	1166.02638	-384.93842	-859.89967	1056.27774	-382.10031	-917.32544	1018.54061	-377.38117	-995.15236	1138.33042	-416.05099	-967.44615	1023.51816	-401.70797	-886.18432	1153.09141	-766.05089	-880.44098	1017.49829	-758.03145	-996.78718	1152.15292	-771.67355	-988.52043	1014.38577	-774.61036	-863.61576	1430.59789	-459.30025	-1046.47655	1482.70881	-541.42271	-884.21828	1415.55623	-731.41782	-1051.37551	1483.19373	-634.37179	-895.64232	1955.33594	-615.07591	-813.65055	1941.26289	-472.73617	-834.54857	1938.51821	-760.53464	-769.79763	1857.56752	-589.48805	-769.45839	1853.68822	-635.89850	-729.61430	1750.32836	-307.25795	-765.05486	1606.08362	-247.04879	-740.31932	1676.31248	-198.40515	-557.66155	1665.18345	-314.84293	-487.55860	1657.90490	-368.34929	-472.87960	1646.04536	-334.92874	-691.17909	1746.86105	-901.60671	-721.39190	1621.60965	-952.14517	-677.56721	1683.99661	-992.43644	-515.38170	1703.24376	-866.39592	-467.00658	1706.53668	-810.28079	-451.92827	1699.63491	-837.77643	-956.59155	1345.94592	-488.23497	-974.30881	1340.25582	-684.83197	-946.71629	1348.45289	-494.28804	-956.21199	1349.39340	-674.41839	
111	1.10000000	-888.43328	883.07354	-400.93631	-939.57548	743.26254	-402.38249	-1214.90419	494.74807	-407.68097	-1274.42763	510.70159	-472.93259	-1153.34096	357.29736	-384.46138	-1107.23936	364.61592	-434.92931	-937.17991	875.78848	-749.39944	-994.14416	683.94099	-727.53211	-1244.37465	491.34792	-731.87925	-1310.86073	481.92791	-665.02274	-1163.27829	355.72145	-776.07475	-1110.42211	368.80555	-720.73060	-1010.95778	655.06623	-407.47656	-993.95421	781.65869	-367.79905	-1067.11881	697.63487	-365.07551	-1046.09936	731.45306	-785.43693	-1125.07981	643.82510	-766.52308	-878.36433	1179.11465	-383.86345	-850.96525	1069.64260	-379.96746	-909.05693	1033.06712	-375.51287	-984.24261	1154.34918	-414.54934	-959.02593	1039.01329	-399.98645	-873.79567	1166.94942	-769.02440	-869.89361	1031.26899	-762.18515	-984.34445	1167.54636	-772.81671	-977.80657	1029.81769	-776.26757	-848.01168	1448.40109	-459.78578	-1031.31395	1496.74879	-541.26554	-868.28001	1432.23751	-731.17690	-1036.25165	1496.97990	-634.33169	-889.59372	1971.37115	-615.87922	-808.19754	1958.93153	-473.59059	-829.16102	1955.25902	-760.43865	-762.68978	1874.33198	-589.37152	-762.58614	1871.14253	-636.08312	-728.26313	1770.45454	-303.10576	-766.90692	1627.36275	-241.09741	-741.50894	1698.44775	-193.22498	-558.70594	1684.64993	-308.48582	-488.32264	1676.26373	-361.65446	-473.93925	1665.05193	-327.74407	-687.52624	1764.94246	-906.25862	-719.14122	1640.55633	-957.81232	-675.30275	1703.13931	-997.48259	-513.81484	1721.71066	-871.07790	-465.35379	1724.70779	-814.82699	-450.32243	1718.09499	-842.19726	-939.08028	1361.88198	-487.98502	-956.86735	1355.38091	-684.54895	-929.35853	1364.67734	-494.48544	-938.88965	1365.12071	-674.16462	
112	1.11000000	-881.81937	898.07529	-398.58775	-932.13324	758.30817	-398.90992	-1201.63502	503.29218	-404.11467	-1258.92650	524.52816	-469.42847	-1149.95731	360.78877	-383.84216	-1103.93989	365.95093	-434.16921	-926.74431	890.88125	-752.92278	-982.43700	698.95548	-732.54644	-1230.47552	504.75585	-733.69498	-1295.81081	500.69542	-666.14544	-1159.56442	361.63517	-776.55789	-1105.85991	371.09664	-721.24777	-1001.26675	668.53546	-403.09404	-987.43136	796.30556	-365.22802	-1059.19516	711.27984	-362.01856	-1035.97595	746.69978	-788.43980	-1113.80644	658.25178	-769.25976	-867.16815	1193.29344	-382.74038	-841.77917	1083.50504	-377.85367	-900.42986	1047.78877	-373.62743	-973.19725	1170.16803	-413.36644	-950.08672	1054.20722	-398.42673	-861.09610	1181.31863	-772.20167	-858.06197	1045.68607	-766.74032	-971.52810	1182.73343	-773.79739	-965.98647	1045.28015	-778.50974	-833.27322	1465.55348	-460.24312	-1017.07706	1511.08938	-541.25139	-853.14407	1448.13467	-729.90520	-1021.71869	1511.03749	-634.23099	-882.78018	1986.72919	-616.49974	-801.76764	1975.39695	-474.44064	-822.89024	1970.98546	-760.30961	-754.79323	1890.27027	-589.18507	-755.14601	1887.75629	-635.92333	-726.81194	1789.76096	-298.82912	-769.14815	1648.04460	-234.79208	-743.02636	1719.90544	-187.88006	-560.01373	1702.94544	-301.76782	-489.39994	1693.39316	-354.58590	-475.36098	1682.62589	-320.32149	-683.89023	1782.05255	-910.76935	-717.01985	1658.50512	-963.54882	-673.11243	1721.17725	-1002.45415	-512.12940	1738.79739	-875.83740	-463.65593	1741.44154	-819.61672	-448.68393	1735.13193	-846.88915	-923.09059	1377.74857	-487.33332	-940.66729	1370.25075	-683.88304	-913.49366	1380.88603	-494.69046	-922.40416	1380.77960	-673.29496	
